# xmcd
#
# Track frame offsets:
#	150
#	17947
#	29442
#	39155
#	66420
#	89001
#	101285
#	112865
#	125206
#	146050
#	156923
#	168359
#	184707
#	200443
#	214717
#
# Disc length: 3044 seconds
#
# Revision: 0
# Processed by: cddbd v1.5.1PL0 Copyright (c) Steve Scherf et al.
# Submitted via: dBpowerAMP V4.0
#
DISCID=d40be20f
DTITLE=Adi Hirschal - Die ganze Welt ist Wien
DYEAR=2005
DGENRE=Comedy
TTITLE0=Der Lemonimann
TTITLE1=Weil i a alter Drahrer bin
TTITLE2=Oelig
TTITLE3=Menschen, Menschen san ma alle!
TTITLE4=Es wird ein Wein sein
TTITLE5=Die letzten zwa Pülcher
TTITLE6='s Favoritner Frauenkäferl
TTITLE7=In einem kleinen Café in Hernals
TTITLE8=Das Glück is a Vogerl
TTITLE9=I suach a Braut mit 17 Häusern
TTITLE10=In dem Herbst
TTITLE11=Weaner Bleamerln
TTITLE12=Wean, mitten im Grean
TTITLE13=I liassert Kirschen für di wachsen
TTITLE14=G'schupfter Ferdl
EXTD=by Benji
EXTT0=
EXTT1=
EXTT2=
EXTT3=
EXTT4=
EXTT5=
EXTT6=
EXTT7=
EXTT8=
EXTT9=
EXTT10=
EXTT11=
EXTT12=
EXTT13=
EXTT14=
PLAYORDER=
